<?xml version="1.0" encoding="utf-8"?>
<!-- Generator: Adobe Illustrator 16.0.0, SVG Export Plug-In . SVG Version: 6.00 Build 0)  -->
<!DOCTYPE svg PUBLIC "-//W3C//DTD SVG 1.1//EN" "http://www.w3.org/Graphics/SVG/1.1/DTD/svg11.dtd">
<svg version="1.1" id="Camada_1" xmlns="http://www.w3.org/2000/svg" xmlns:xlink="http://www.w3.org/1999/xlink" x="0px" y="0px"
	 width="150px" height="75px" viewBox="-9 -5.5 150 75" enable-background="new -9 -5.5 150 75" xml:space="preserve">
<g>
	<g>
		<g>
			<g>
				<path fill="#58595B" d="M92.686,31.692h33.591v2.13c12.13-5.951,11.225,17.836-1.057,12.701
					c-0.128-0.053,0.45-0.684,0.308-0.686c5.973,1.4,9.046-5.152,6.628-9.137c-0.781-1.287-3.584-1.875-5.879-0.883v6.168
					c0,5.662-4.62,10.297-10.27,10.297h-12.81c-5.649,0-10.271-4.635-10.271-10.297L92.686,31.692z"/>
			</g>
			<path fill="#58595B" d="M92.927,41.988L92.686,31.69L92.927,41.988z"/>
			<path fill="#58595B" d="M103.51,12.679c-11.034-7.264-2.782-17.632,4.87-16.858c7.653,0.773,11.601,6.894,10.902,15.398
				c-0.045,0.531-0.351,2.306-1.094,3.745c12.431-5.273,12.595,7.315,4.911,8.162c4.36-3.457,2.03-6.509-1.274-6.358
				c-2.868,0.131-5.72,2.906-6.928,6.375l-0.699-1.362c-2.156,2.061-5.313,4.896-8.043,6.019c6.365-6.142,7.776-9.314,8.218-16.518
				C115.348-3.684,96.239,0.482,103.51,12.679z"/>
		</g>
		<path fill="#BCBEC0" d="M14.369,40.729l0.029,1.783c-1.435,1.518-2.844,2.59-4.232,3.189c-1.398,0.609-3.04,0.91-4.925,0.91
			c-2.056,0-3.904-0.533-5.555-1.615c-1.644-1.068-2.918-2.58-3.801-4.539c-0.891-1.963-1.332-3.885-1.332-5.781
			c0-2.064,0.535-4.029,1.605-5.87c1.069-1.838,2.496-3.217,4.259-4.128c1.764-0.902,3.988-1.362,6.663-1.362
			c2.569,0,4.521,0.442,5.854,1.324c0.761,0.517,1.136,1.173,1.136,1.98c0,0.582-0.197,1.069-0.581,1.454s-0.883,0.582-1.482,0.582
			c-0.919,0-1.924-0.573-3.022-1.708C8.3,26.255,7.69,25.775,7.137,25.503c-0.544-0.262-1.164-0.395-1.839-0.395
			c-1.632,0-2.983,0.667-4.072,2.009c-1.501,1.904-2.251,4.301-2.251,7.171c0,2.977,0.77,5.34,2.308,7.096
			c1.539,1.766,3.34,2.639,5.395,2.639c1.427,0,2.693-0.227,3.801-0.695C11.584,42.859,12.887,41.994,14.369,40.729z"/>
		<path fill="#BCBEC0" d="M33.944,31.458l-9.589,0.071v-1.264c1.109-0.065,2.41-0.143,3.903-0.237
			c0.731-0.039,1.182-0.114,1.341-0.225c0.338-0.347,0.498-0.66,0.498-0.931c0-0.573-0.178-1.221-0.544-1.942
			c-0.366-0.723-0.939-1.286-1.698-1.679c-0.761-0.394-1.642-0.59-2.646-0.59c-0.291,0-0.576,0.015-0.854,0.045v-1.293
			c0.336-0.024,0.683-0.037,1.042-0.037c1.707,0,3.095,0.31,4.184,0.929c1.464,0.825,2.553,1.895,3.285,3.19
			c0.721,1.304,1.079,2.496,1.079,3.579v0.385H33.944z M24.354,43.49c0.801,0.219,1.679,0.34,2.636,0.363
			c1.042-0.047,1.876-0.178,2.506-0.387c0.619-0.195,1.501-0.664,2.637-1.396l1.979-1.623l0.159,1.096
			c0,0.131-0.009,0.271-0.019,0.414c-0.826,1.051-1.875,1.959-3.133,2.75c-1.266,0.787-2.552,1.367-3.856,1.734
			c-0.595,0.152-1.562,0.236-2.908,0.244V43.49H24.354z M24.354,31.529l-1.426,0.013h-2.094c-0.844,0-1.707,0.036-2.589,0.112
			c-0.159,0.546-0.244,0.922-0.244,1.126l0.029,0.272v0.271l-0.029,1.352c0,1.117,0.356,2.488,1.06,4.111
			c0.705,1.623,1.717,2.859,3.021,3.705c0.672,0.438,1.429,0.771,2.271,0.998v3.195h-0.17c-1.294,0-2.58-0.264-3.846-0.797
			c-1.868-0.809-3.341-2.104-4.411-3.887c-1.071-1.791-1.604-3.959-1.604-6.502c0-0.807,0.15-1.849,0.452-3.105
			c0.3-1.269,0.843-2.622,1.632-4.05c0.535-0.967,1.182-1.764,1.951-2.392c1.098-0.884,2.064-1.493,2.89-1.84
			c0.922-0.384,1.956-0.619,3.106-0.704v1.292c-1.737,0.189-3.159,0.973-4.26,2.348c-0.995,1.21-1.482,2.346-1.482,3.418h1.286
			c0.635,0,2.122-0.07,4.458-0.206v1.266H24.354z"/>
		<path fill="#58595B" d="M26.521,56.736c0.349-0.236,0.658-0.357,0.93-0.357c0.844,0,1.812,0.486,2.89,1.461
			c0.178,0.162,0.319,0.283,0.414,0.357l0.132,0.131c0.44,0.367,0.899,0.555,1.378,0.555c0.694,0,1.39-0.234,2.092-0.713
			c0.694-0.479,1.248-1.137,1.67-1.98c0.573-1.172,0.986-2.496,1.257-3.961c0.263-1.461,0.396-3.246,0.396-5.328l-0.33-32.059
			c0.019-0.479-0.066-0.892-0.243-1.239c-0.113-0.188-0.31-0.347-0.591-0.497c-0.292-0.15-0.693-0.225-1.228-0.243l-2.037-0.141
			c-0.638,0-1.078-0.066-1.313-0.197c-0.075-0.272-0.113-0.479-0.113-0.629l0.028-0.327c0.403,0,0.9,0.019,1.482,0.056
			c1.136,0.056,2.243,0.085,3.332,0.085c0.505,0,1.19-0.01,2.026-0.028c0.646-0.037,1.098-0.056,1.351-0.056h4.044
			c0.563,0,1.182,0.028,1.838,0.085c0,0.412-0.018,0.75-0.056,0.985c-1.578,0.075-2.571,0.188-2.993,0.328
			c-0.421,0.15-0.731,0.347-0.938,0.61c-0.122,0.16-0.188,0.479-0.188,0.957l0.023,28.077c0.002,1.688-0.274,4.158-0.821,6.73
			c-0.517,2.383-1.445,4.551-2.777,6.502c-1.342,1.953-2.655,3.283-3.96,3.998c-1.304,0.713-3.031,1.078-5.198,1.078
			c-1.155,0-2.075-0.281-2.778-0.824c-0.468-0.389-0.714-0.902-0.714-1.541C25.526,57.842,25.854,57.213,26.521,56.736z"/>
		<path fill="#58595B" d="M43.349,23.436h2.056l0.91,0.056l0.714-0.056c1.886,0,3.059,0.018,3.519,0.056l0.029,0.525
			c0,2.58-0.038,5.085-0.114,7.51c-0.047,1.428-0.074,2.243-0.074,2.44c0,3.23,0.103,5.246,0.309,6.053
			c0.216,0.809,0.713,1.455,1.492,1.936c0.78,0.486,1.717,0.73,2.815,0.73c1.333,0,2.618-0.281,3.839-0.836
			c1.21-0.563,2.252-1.248,3.116-2.055c0.094-0.693,0.141-1.463,0.141-2.307c0-2.73,0.027-4.571,0.083-5.529
			c0.01-0.564,0.021-1.062,0.021-1.484c0-2.967-0.14-4.647-0.432-5.031c-0.301-0.384-1.417-0.675-3.36-0.883
			c-0.638-0.074-1.107-0.131-1.398-0.187c-0.15-0.245-0.224-0.422-0.224-0.553l0.084-0.3c0.479-0.056,0.948-0.085,1.407-0.085
			l4.363,0.056c1.558-0.038,2.384-0.056,2.478-0.056c0.197,0,0.395,0.009,0.582,0.027l0.048,2.007
			c-0.121,2.788-0.196,6.236-0.217,10.347l-0.055,2.225l0.111,3.734c0.16,0.301,0.31,0.469,0.441,0.525
			c0.216,0.094,0.666,0.141,1.341,0.141h0.255c0.235,0,0.91,0.047,2.026,0.16c0.02,0.244,0.028,0.412,0.028,0.525v0.301
			c-2.449,0.535-4.439,1.061-5.958,1.596c-0.611,0.199-1.126,0.346-1.541,0.441c-0.094-0.639-0.141-1.031-0.141-1.182v-2.223
			c0-0.096-0.009-0.348-0.027-0.752c-0.234,0.168-0.517,0.375-0.826,0.611c-1.446,1.115-2.976,2.063-4.588,2.832
			c-1.08,0.525-2.13,0.797-3.134,0.797c-1.922,0-3.49-0.723-4.701-2.148c-1.229-1.426-1.84-3.865-1.84-7.309
			c0-0.188,0.009-0.516,0.02-0.994c0.074-0.873,0.112-1.494,0.112-1.841c0-0.129-0.009-0.535-0.028-1.21
			c-0.019-0.293-0.027-0.545-0.027-0.771c0-0.16,0.009-0.537,0.027-1.118c0.019-0.574,0.028-0.978,0.028-1.222
			c0-0.309-0.009-0.582-0.028-0.826l-0.056-1.455l0.028-0.77c0-0.29-0.141-0.563-0.441-0.796c-1.155-0.311-1.904-0.488-2.262-0.536
			c-0.356-0.047-0.675-0.122-0.948-0.235v-0.882H43.349z"/>
		<path fill="#58595B" d="M79.922,23.264l0.111-0.001c1.22,0,2.358,0.169,3.379,0.517c0.58,0.188,1.454,0.647,2.608,1.38
			c0.73,0.46,1.163,0.714,1.293,0.769c0.291,0.094,0.621,0.132,0.987,0.132c0.316,0,1.069-0.075,2.271-0.225
			c1.198-0.159,1.913-0.235,2.127-0.235c0.423,0,0.77,0.075,1.042,0.243c0.226,0.366,0.339,0.986,0.339,1.84
			c0,0.3-0.086,0.517-0.235,0.667c-0.16,0.14-0.385,0.215-0.676,0.215c-0.516,0-1.36-0.159-2.543-0.479
			c-1.182-0.318-1.904-0.479-2.16-0.479c-0.092,0-0.262,0.009-0.523,0.047c0.788,1.577,1.183,3.025,1.183,4.322
			c0,1.304-0.414,2.655-1.239,4.044c-0.815,1.389-1.96,2.459-3.406,3.189c-1.445,0.732-2.907,1.098-4.4,1.098
			c-0.032,0-0.086,0-0.16-0.002v-0.955c1.558-0.023,2.85-0.631,3.885-1.83c1.06-1.219,1.585-3.077,1.585-5.575
			c0-2.507-0.552-4.423-1.649-5.727c-1.058-1.266-2.334-1.921-3.82-1.967v-0.988H79.922z M79.922,45.188
			c1.299,0.143,2.782,0.24,4.446,0.293c2.111,0.072,3.754,0.373,4.926,0.91c1.172,0.523,2.056,1.314,2.657,2.344
			c0.591,1.033,0.89,2.104,0.89,3.201c0,1.49-0.507,2.859-1.51,4.127c-1.013,1.268-2.543,2.289-4.598,3.08
			c-1.981,0.764-4.252,1.156-6.812,1.18v-1.021c1.793-0.006,3.583-0.287,5.375-0.863c1.802-0.572,3.126-1.4,3.952-2.469
			c0.834-1.078,1.255-2.09,1.255-3.037c0-0.592-0.148-1.174-0.439-1.746c-0.291-0.58-0.694-1.061-1.201-1.436
			c-0.499-0.375-1.162-0.666-1.99-0.893c-0.581-0.158-1.414-0.279-2.505-0.355c-1.973-0.15-3.455-0.256-4.446-0.309V45.188z
			 M75.549,47.619c-0.215-0.105-0.93-0.414-2.12-0.9c-1.389-0.9-2.271-1.568-2.637-2.01c-0.367-0.441-0.544-0.93-0.544-1.455
			c0-0.477,0.13-0.863,0.411-1.162c0.404-0.412,1.192-0.818,2.384-1.201c1.191-0.385,2.177-0.762,2.945-1.137
			c-0.235-0.16-0.618-0.404-1.126-0.713c-2.729-1.678-4.1-4.016-4.1-7.007c0-2.464,0.875-4.539,2.6-6.227
			c1.712-1.676,3.896-2.519,6.56-2.542v0.987c-0.056-0.001-0.113-0.002-0.17-0.002c-1.735,0-3.058,0.628-3.958,1.868
			c-0.891,1.247-1.343,3.179-1.343,5.802c0,1.65,0.244,3.033,0.741,4.139c0.498,1.117,1.173,1.934,2.035,2.479
			c0.862,0.543,1.728,0.814,2.608,0.814h0.084v0.955c-0.161-0.002-0.415-0.014-0.771-0.025c-1.689,0-3.235,0.422-4.645,1.268
			c-0.685,0.422-1.022,0.816-1.022,1.182c0,0.385,0.328,0.76,0.995,1.125c1.139,0.615,2.954,1.059,5.44,1.332v3.002
			c-0.556-0.029-0.961-0.047-1.21-0.047c-1.96,0-3.715,0.656-5.256,1.98c-1.189,1.025-1.782,2.252-1.782,3.688
			c0,1.316,0.621,2.506,1.867,3.564c1.671,1.287,3.773,1.926,6.327,1.926h0.054v1.021c-0.083,0.002-0.168,0.002-0.253,0.002
			c-2.927,0-5.188-0.359-6.784-1.07c-1.595-0.723-2.731-1.502-3.395-2.336c-0.667-0.844-1.006-1.68-1.006-2.506
			c0-0.715,0.365-1.604,1.098-2.684c0.73-1.072,2.264-2.197,4.569-3.369C74.827,48.014,75.296,47.77,75.549,47.619z"/>
		<path fill="#6D6E71" d="M132.577,37.609c-0.113-0.277-0.267-0.65-0.426-0.912c-0.783-1.285-3.585-1.875-5.879-0.881l-0.002,1.098
			c-11.003-1.5-22.201-2.621-33.598-3.336l0.007-1.89h33.593v2.13c5.15-2.526,7.95,0.309,8.526,4.016L132.577,37.609z"/>
		<path fill="#6D6E71" d="M103.505,12.675c-11.034-7.264-2.783-17.632,4.87-16.858c7.651,0.773,11.6,6.895,10.901,15.4
			c-0.044,0.531-0.35,2.306-1.092,3.744c12.428-5.273,12.593,7.316,4.907,8.163c4.363-3.458,2.031-6.51-1.271-6.358
			c-2.87,0.131-5.722,2.905-6.932,6.375l-0.695-1.363c-2.156,2.063-5.313,4.896-8.045,6.019c6.365-6.141,7.777-9.313,8.219-16.518
			C115.343-3.689,96.235,0.479,103.505,12.675z"/>
		<path fill="#D1D3D4" d="M-5.364,36.146c-0.059-0.494-0.09-0.984-0.09-1.475c0-2.066,0.534-4.029,1.605-5.871
			c1.07-1.839,2.496-3.218,4.26-4.129c1.765-0.9,3.988-1.361,6.662-1.361c2.571,0,4.522,0.441,5.855,1.323
			c0.759,0.517,1.135,1.173,1.135,1.979c0,0.583-0.196,1.071-0.583,1.455c-0.384,0.384-0.882,0.582-1.482,0.582
			c-0.919,0-1.923-0.574-3.021-1.708c-0.686-0.693-1.295-1.171-1.847-1.445c-0.545-0.262-1.165-0.393-1.84-0.393
			c-1.632,0-2.983,0.667-4.072,2.007c-1.502,1.904-2.25,4.301-2.25,7.172c0,0.471,0.018,0.926,0.057,1.365
			C-2.451,35.811-3.912,35.977-5.364,36.146z"/>
		<path fill="#D1D3D4" d="M33.937,31.453l-9.589,0.074v-1.266c1.109-0.065,2.411-0.144,3.902-0.237
			c0.733-0.039,1.183-0.114,1.342-0.226c0.338-0.346,0.498-0.658,0.498-0.93c0-0.572-0.18-1.22-0.544-1.942
			c-0.367-0.721-0.939-1.286-1.698-1.679c-0.76-0.393-1.641-0.593-2.646-0.593c-0.292,0-0.577,0.017-0.855,0.046v-1.292
			c0.337-0.024,0.685-0.037,1.042-0.037c1.707,0,3.096,0.309,4.184,0.929c1.464,0.826,2.553,1.896,3.284,3.19
			c0.723,1.304,1.078,2.497,1.078,3.577v0.388H33.937z M24.348,31.527l-1.426,0.01h-2.093c-0.844,0-1.708,0.037-2.59,0.113
			c-0.159,0.545-0.244,0.92-0.244,1.126l0.027,0.271v0.272l-0.013,0.638c-1.203,0.084-2.403,0.174-3.595,0.262
			c0.075-0.544,0.191-1.155,0.353-1.829c0.301-1.268,0.845-2.622,1.633-4.048c0.535-0.967,1.182-1.764,1.95-2.394
			c1.098-0.881,2.066-1.492,2.892-1.838c0.922-0.384,1.956-0.619,3.106-0.704v1.292c-1.738,0.189-3.159,0.973-4.259,2.347
			c-0.995,1.211-1.482,2.346-1.482,3.419h1.286c0.636,0,2.122-0.07,4.456-0.205L24.348,31.527L24.348,31.527z"/>
		<path fill="#6D6E71" d="M37.53,32.931l-0.186-18.092c0.018-0.479-0.066-0.892-0.243-1.239c-0.114-0.188-0.312-0.348-0.593-0.498
			c-0.29-0.15-0.693-0.226-1.229-0.244l-2.035-0.141c-0.639,0-1.08-0.066-1.315-0.197c-0.074-0.272-0.113-0.479-0.113-0.629
			l0.029-0.327c0.403,0,0.901,0.018,1.482,0.056c1.135,0.055,2.243,0.083,3.33,0.083c0.506,0,1.192-0.009,2.028-0.028
			c0.646-0.037,1.098-0.055,1.351-0.055h4.044c0.562,0,1.182,0.027,1.839,0.083c0,0.414-0.019,0.75-0.057,0.986
			c-1.576,0.075-2.571,0.187-2.993,0.328c-0.421,0.15-0.73,0.348-0.937,0.611c-0.122,0.159-0.188,0.478-0.188,0.957l0.016,18.212
			C40.343,32.836,38.934,32.881,37.53,32.931z"/>
		<path fill="#6D6E71" d="M43.343,23.431h2.056l0.91,0.056l0.713-0.056c1.887,0,3.058,0.018,3.519,0.056l0.027,0.525
			c0,2.581-0.037,5.085-0.112,7.511l-0.037,1.096c-1.13,0.016-2.256,0.033-3.379,0.056c-0.006-0.175-0.011-0.386-0.018-0.636
			c-0.018-0.29-0.027-0.545-0.027-0.77c0-0.161,0.009-0.534,0.027-1.119c0.02-0.573,0.029-0.977,0.029-1.221
			c0-0.311-0.009-0.581-0.029-0.825l-0.056-1.456l0.028-0.768c0-0.291-0.142-0.563-0.441-0.798
			c-1.154-0.309-1.905-0.488-2.262-0.534c-0.356-0.047-0.676-0.121-0.948-0.234L43.343,23.431L43.343,23.431z M62.148,32.58
			c0.008-0.24,0.018-0.448,0.028-0.625c0.009-0.563,0.019-1.061,0.019-1.485c0-2.966-0.141-4.646-0.431-5.031
			c-0.3-0.384-1.417-0.675-3.36-0.883c-0.638-0.074-1.106-0.131-1.398-0.188c-0.15-0.243-0.225-0.421-0.225-0.552l0.085-0.3
			c0.479-0.057,0.948-0.084,1.408-0.084l4.363,0.056c1.556-0.038,2.383-0.056,2.477-0.056c0.197,0,0.394,0.009,0.582,0.027
			l0.048,2.007c-0.089,2.031-0.153,4.41-0.189,7.147C64.42,32.6,63.285,32.588,62.148,32.58z"/>
		<path fill="#6D6E71" d="M70.781,32.695c-0.017-0.218-0.024-0.441-0.024-0.666c0-2.463,0.874-4.537,2.599-6.228
			c1.738-1.697,3.959-2.543,6.673-2.543c1.219,0,2.354,0.169,3.376,0.517c0.583,0.188,1.455,0.647,2.61,1.379
			c0.729,0.46,1.162,0.714,1.292,0.77c0.292,0.094,0.621,0.131,0.985,0.131c0.319,0,1.069-0.075,2.271-0.225
			c1.203-0.159,1.915-0.234,2.131-0.234c0.421,0,0.768,0.075,1.04,0.243c0.226,0.366,0.339,0.986,0.339,1.84
			c0,0.299-0.086,0.517-0.235,0.667c-0.16,0.141-0.385,0.215-0.676,0.215c-0.516,0-1.36-0.159-2.543-0.479
			c-1.182-0.319-1.904-0.478-2.159-0.478c-0.093,0-0.263,0.009-0.524,0.047c0.787,1.576,1.183,3.025,1.183,4.322
			c0,0.458-0.052,0.921-0.153,1.391c-1.207-0.065-2.414-0.123-3.63-0.179c0.03-0.394,0.047-0.809,0.047-1.239
			c0-2.51-0.552-4.426-1.649-5.729c-1.098-1.314-2.431-1.97-3.989-1.97c-1.735,0-3.059,0.628-3.96,1.866
			c-0.89,1.248-1.34,3.182-1.34,5.803c0,0.298,0.007,0.587,0.022,0.868C73.245,32.751,72.014,32.721,70.781,32.695z"/>
	</g>
	<path fill="#414042" d="M76.564,66.777v-4.92h0.604v1.771c0.28-0.328,0.635-0.495,1.063-0.495c0.262,0,0.489,0.055,0.684,0.157
		c0.194,0.105,0.33,0.248,0.415,0.43c0.085,0.185,0.125,0.451,0.125,0.8v2.257h-0.603v-2.252c0-0.304-0.064-0.523-0.197-0.661
		c-0.131-0.137-0.313-0.206-0.551-0.206c-0.182,0-0.347,0.047-0.504,0.136c-0.158,0.097-0.268,0.222-0.338,0.378
		c-0.065,0.161-0.1,0.381-0.1,0.658v1.947H76.564L76.564,66.777z M81.701,66.241l0.08,0.533c-0.169,0.034-0.324,0.051-0.455,0.051
		c-0.22,0-0.388-0.034-0.511-0.103c-0.123-0.07-0.205-0.16-0.255-0.275c-0.047-0.112-0.071-0.353-0.071-0.716v-2.054h-0.446v-0.466
		h0.447v-0.889l0.604-0.358v1.247h0.606v0.466h-0.606v2.089c0,0.175,0.011,0.283,0.033,0.335c0.022,0.049,0.052,0.089,0.103,0.117
		c0.046,0.031,0.119,0.045,0.206,0.045C81.503,66.265,81.59,66.255,81.701,66.241L81.701,66.241z M83.609,66.241l0.082,0.533
		c-0.169,0.034-0.319,0.051-0.453,0.051c-0.22,0-0.388-0.034-0.51-0.103c-0.118-0.07-0.202-0.16-0.252-0.275
		c-0.051-0.112-0.078-0.353-0.078-0.716v-2.054h-0.443v-0.466h0.443v-0.889l0.606-0.358v1.247h0.604v0.466h-0.604v2.089
		c0,0.175,0.011,0.283,0.032,0.335c0.022,0.049,0.056,0.089,0.105,0.117c0.046,0.031,0.12,0.045,0.207,0.045
		C83.412,66.265,83.501,66.255,83.609,66.241L83.609,66.241z M84.207,68.15v-4.937h0.546v0.468c0.132-0.181,0.279-0.318,0.444-0.41
		c0.163-0.091,0.359-0.136,0.591-0.136c0.308,0,0.572,0.078,0.805,0.234c0.231,0.156,0.408,0.378,0.529,0.663
		c0.118,0.284,0.176,0.596,0.176,0.936c0,0.364-0.063,0.692-0.197,0.984c-0.126,0.288-0.317,0.512-0.569,0.671
		c-0.247,0.153-0.51,0.229-0.785,0.229c-0.201,0-0.383-0.04-0.539-0.126c-0.162-0.085-0.292-0.192-0.395-0.321v1.744H84.207
		L84.207,68.15z M84.753,65.018c0,0.458,0.097,0.795,0.279,1.014c0.184,0.219,0.412,0.33,0.674,0.33c0.268,0,0.5-0.117,0.688-0.341
		c0.192-0.228,0.283-0.576,0.283-1.054c0-0.452-0.093-0.795-0.277-1.019c-0.188-0.228-0.411-0.34-0.667-0.34
		c-0.257,0-0.484,0.119-0.682,0.358C84.854,64.212,84.753,64.56,84.753,65.018L84.753,65.018z M88.196,63.9v-0.687h0.688V63.9
		H88.196L88.196,63.9z M88.196,66.777v-0.685h0.688v0.685H88.196L88.196,66.777z M89.486,66.862l1.43-5.089h0.489l-1.434,5.089
		H89.486L89.486,66.862z M91.396,66.862h0.488l1.43-5.089h-0.487L91.396,66.862L91.396,66.862z M94.399,66.777l-1.074-3.565h0.631
		l0.57,2.057l0.202,0.77c0.008-0.039,0.067-0.285,0.184-0.736l0.567-2.09h0.617l0.539,2.069l0.178,0.682l0.202-0.688l0.615-2.063
		h0.591l-1.121,3.565h-0.625l-0.568-2.135l-0.143-0.609l-0.723,2.744H94.399L94.399,66.777z M99.368,66.777l-1.078-3.565h0.633
		l0.568,2.057l0.2,0.77c0.008-0.039,0.071-0.285,0.187-0.736l0.566-2.09h0.617l0.538,2.069l0.174,0.682l0.205-0.688l0.618-2.063
		h0.588l-1.117,3.565h-0.629l-0.564-2.135l-0.146-0.609l-0.72,2.744H99.368L99.368,66.777z M104.331,66.777l-1.076-3.565h0.631
		l0.571,2.057l0.201,0.77c0.008-0.039,0.07-0.285,0.187-0.736l0.563-2.09h0.621l0.538,2.069l0.173,0.682l0.204-0.688l0.617-2.063
		h0.59l-1.119,3.565h-0.624l-0.57-2.135l-0.143-0.609l-0.721,2.744H104.331L104.331,66.777z M108.446,66.777v-0.685h0.687v0.685
		H108.446L108.446,66.777z M112.514,65.474l0.591,0.082c-0.063,0.408-0.23,0.724-0.495,0.956c-0.269,0.229-0.596,0.342-0.984,0.342
		c-0.487,0-0.881-0.156-1.173-0.476c-0.297-0.316-0.448-0.772-0.448-1.366c0-0.387,0.066-0.722,0.195-1.01
		c0.128-0.288,0.318-0.507,0.583-0.648c0.259-0.146,0.544-0.218,0.849-0.218c0.387,0,0.704,0.099,0.949,0.295
		c0.246,0.195,0.404,0.474,0.474,0.834l-0.587,0.088c-0.052-0.238-0.154-0.421-0.294-0.54c-0.145-0.119-0.317-0.184-0.52-0.184
		c-0.301,0-0.551,0.11-0.742,0.326c-0.191,0.222-0.282,0.565-0.282,1.036c0,0.479,0.088,0.825,0.273,1.045
		c0.187,0.218,0.424,0.325,0.718,0.325c0.24,0,0.438-0.072,0.594-0.22C112.372,65.999,112.474,65.775,112.514,65.474L112.514,65.474
		z M116.056,65.624l0.626,0.082c-0.098,0.361-0.277,0.649-0.545,0.848c-0.268,0.2-0.604,0.3-1.019,0.3
		c-0.518,0-0.933-0.161-1.237-0.479c-0.303-0.321-0.456-0.772-0.456-1.349c0-0.599,0.153-1.063,0.46-1.394
		c0.308-0.331,0.712-0.498,1.201-0.498c0.474,0,0.863,0.162,1.163,0.486c0.302,0.324,0.453,0.78,0.453,1.369
		c0,0.037,0,0.089-0.004,0.161h-2.657c0.026,0.389,0.135,0.689,0.335,0.898c0.197,0.206,0.447,0.313,0.745,0.313
		c0.22,0,0.411-0.058,0.564-0.175C115.841,66.067,115.963,65.88,116.056,65.624L116.056,65.624z M114.075,64.656h1.988
		c-0.026-0.301-0.103-0.524-0.228-0.674c-0.191-0.232-0.438-0.351-0.748-0.351c-0.277,0-0.51,0.094-0.701,0.277
		C114.203,64.096,114.1,64.346,114.075,64.656L114.075,64.656z M117.44,62.56v-0.702h0.606v0.702H117.44L117.44,62.56z
		 M116.676,68.16c0.151,0.04,0.311,0.064,0.476,0.064c0.337,0,0.58-0.113,0.724-0.337c0.118-0.173,0.172-0.478,0.172-0.915v-3.759
		h-0.603v3.742c0,0.329-0.031,0.534-0.093,0.616c-0.063,0.08-0.153,0.12-0.277,0.12c-0.068,0-0.162-0.015-0.285-0.049L116.676,68.16
		L116.676,68.16z M121.304,66.777V66.25c-0.276,0.404-0.656,0.604-1.125,0.604c-0.214,0-0.408-0.04-0.593-0.117
		c-0.18-0.082-0.315-0.183-0.403-0.307c-0.089-0.118-0.151-0.269-0.188-0.447c-0.026-0.117-0.037-0.307-0.037-0.563v-2.205h0.605
		v1.973c0,0.314,0.012,0.527,0.035,0.636c0.039,0.16,0.12,0.284,0.244,0.375c0.118,0.09,0.273,0.136,0.455,0.136
		c0.177,0,0.35-0.046,0.509-0.138c0.158-0.094,0.272-0.22,0.34-0.38c0.061-0.16,0.096-0.392,0.096-0.695v-1.906h0.605v3.567h-0.544
		V66.777z M122.688,67.075l0.583,0.085c0.025,0.18,0.093,0.313,0.207,0.396c0.149,0.112,0.353,0.167,0.612,0.167
		c0.279,0,0.497-0.055,0.651-0.167c0.149-0.112,0.257-0.27,0.309-0.47c0.028-0.121,0.044-0.38,0.041-0.771
		c-0.265,0.309-0.592,0.466-0.986,0.466c-0.491,0-0.871-0.178-1.139-0.528c-0.269-0.355-0.402-0.777-0.402-1.272
		c0-0.342,0.062-0.655,0.187-0.943c0.12-0.285,0.298-0.509,0.533-0.667c0.231-0.156,0.509-0.234,0.825-0.234
		c0.419,0,0.765,0.173,1.037,0.516v-0.438h0.56v3.079c0,0.555-0.057,0.951-0.168,1.184c-0.117,0.229-0.294,0.413-0.537,0.547
		c-0.246,0.132-0.548,0.201-0.906,0.201c-0.425,0-0.764-0.099-1.025-0.286C122.804,67.749,122.678,67.46,122.688,67.075
		L122.688,67.075z M123.181,64.934c0,0.468,0.093,0.808,0.277,1.022c0.188,0.212,0.42,0.321,0.699,0.321
		c0.277,0,0.511-0.107,0.7-0.319c0.186-0.214,0.282-0.547,0.282-1.003c0-0.435-0.101-0.765-0.294-0.984
		c-0.192-0.221-0.428-0.33-0.7-0.33c-0.268,0-0.494,0.109-0.682,0.326C123.276,64.183,123.181,64.507,123.181,64.934L123.181,64.934
		z M126.792,66.777v-0.685h0.688v0.685H126.792L126.792,66.777z M128.304,64.995c0-0.657,0.186-1.145,0.549-1.462
		c0.308-0.265,0.683-0.397,1.125-0.397c0.487,0,0.893,0.16,1.204,0.482c0.31,0.319,0.466,0.762,0.466,1.327
		c0,0.46-0.07,0.818-0.206,1.081c-0.138,0.263-0.338,0.466-0.602,0.611c-0.264,0.147-0.55,0.216-0.859,0.216
		c-0.503,0-0.901-0.156-1.214-0.476C128.455,66.057,128.304,65.599,128.304,64.995L128.304,64.995z M128.925,64.996
		c0,0.455,0.098,0.798,0.298,1.024c0.2,0.224,0.45,0.341,0.755,0.341c0.298,0,0.548-0.117,0.747-0.344c0.2-0.227,0.3-0.573,0.3-1.04
		c0-0.438-0.102-0.775-0.301-0.998c-0.198-0.229-0.448-0.344-0.746-0.344c-0.305,0-0.555,0.114-0.755,0.341
		C129.022,64.202,128.925,64.542,128.925,64.996L128.925,64.996z M132.348,66.777v-3.565h0.539v0.544
		c0.141-0.252,0.271-0.422,0.387-0.502c0.116-0.082,0.25-0.12,0.389-0.12c0.205,0,0.412,0.064,0.621,0.194l-0.213,0.558
		c-0.146-0.084-0.294-0.123-0.439-0.123c-0.13,0-0.249,0.039-0.354,0.119c-0.103,0.077-0.18,0.191-0.221,0.331
		c-0.067,0.214-0.103,0.449-0.103,0.705v1.863h-0.605V66.777z M134.533,67.075l0.584,0.085c0.023,0.18,0.092,0.313,0.202,0.396
		c0.155,0.112,0.356,0.167,0.617,0.167c0.28,0,0.498-0.055,0.648-0.167c0.153-0.112,0.257-0.27,0.311-0.47
		c0.03-0.121,0.045-0.38,0.041-0.771c-0.265,0.309-0.591,0.466-0.988,0.466c-0.489,0-0.866-0.178-1.136-0.528
		c-0.271-0.355-0.404-0.777-0.404-1.272c0-0.342,0.062-0.655,0.188-0.943c0.122-0.285,0.302-0.509,0.531-0.667
		c0.235-0.156,0.509-0.234,0.826-0.234c0.421,0,0.768,0.173,1.041,0.516v-0.438h0.554v3.079c0,0.555-0.053,0.951-0.165,1.184
		c-0.115,0.229-0.291,0.413-0.537,0.547c-0.248,0.132-0.548,0.201-0.904,0.201c-0.425,0-0.767-0.099-1.029-0.286
		C134.647,67.749,134.522,67.46,134.533,67.075L134.533,67.075z M135.025,64.934c0,0.468,0.093,0.808,0.28,1.022
		c0.188,0.212,0.419,0.321,0.698,0.321c0.276,0,0.513-0.107,0.701-0.319c0.188-0.214,0.28-0.547,0.28-1.003
		c0-0.435-0.1-0.765-0.291-0.984c-0.195-0.221-0.429-0.33-0.698-0.33c-0.271,0-0.502,0.109-0.687,0.326
		C135.122,64.183,135.025,64.507,135.025,64.934z"/>
	<path d="M-5.548,5.094l1.369-6.527h2.725c0.472,0,0.828,0.052,1.064,0.163c0.236,0.108,0.431,0.293,0.586,0.557
		c0.154,0.26,0.231,0.554,0.231,0.881c0,0.271-0.052,0.543-0.164,0.823C0.153,1.269,0.016,1.5-0.153,1.682
		c-0.167,0.183-0.338,0.316-0.509,0.41c-0.174,0.091-0.358,0.16-0.553,0.204c-0.421,0.1-0.845,0.147-1.272,0.147h-1.64l-0.557,2.651
		H-5.548L-5.548,5.094z M-3.973,1.702h1.445c0.561,0,0.972-0.062,1.235-0.183c0.265-0.124,0.474-0.301,0.633-0.547
		c0.155-0.248,0.234-0.51,0.234-0.785c0-0.212-0.041-0.388-0.124-0.521c-0.082-0.134-0.202-0.233-0.355-0.296
		c-0.152-0.065-0.447-0.097-0.88-0.097h-1.68L-3.973,1.702L-3.973,1.702z M0.587,3.296c0-0.92,0.273-1.683,0.815-2.29
		C1.853,0.51,2.438,0.261,3.165,0.261c0.568,0,1.027,0.178,1.378,0.533C4.892,1.15,5.067,1.63,5.067,2.234
		c0,0.542-0.11,1.046-0.331,1.515C4.518,4.215,4.206,4.574,3.8,4.819C3.393,5.07,2.969,5.196,2.52,5.196
		c-0.366,0-0.702-0.08-1.002-0.236C1.213,4.804,0.983,4.581,0.826,4.293C0.667,4.007,0.587,3.673,0.587,3.296L0.587,3.296z
		 M1.391,3.218c0,0.446,0.109,0.784,0.321,1.012c0.216,0.232,0.49,0.346,0.82,0.346c0.174,0,0.345-0.037,0.517-0.104
		C3.217,4.4,3.374,4.297,3.521,4.154c0.144-0.14,0.272-0.305,0.375-0.487c0.101-0.185,0.186-0.38,0.249-0.589
		C4.237,2.783,4.283,2.5,4.283,2.229c0-0.424-0.105-0.757-0.323-0.991C3.742,1.002,3.469,0.883,3.141,0.883
		c-0.253,0-0.482,0.063-0.695,0.182C2.238,1.187,2.05,1.359,1.878,1.593C1.71,1.823,1.588,2.094,1.507,2.399
		C1.43,2.705,1.391,2.98,1.391,3.218L1.391,3.218z M6.417,5.094L5.925,0.361h0.776l0.205,2.127l0.083,1.195
		C6.996,3.772,7.011,3.95,7.026,4.22c0.096-0.298,0.175-0.527,0.233-0.69c0.062-0.162,0.159-0.396,0.298-0.695l1.135-2.474h0.875
		l0.15,2.367C9.743,3.088,9.76,3.567,9.763,4.163c0.147-0.392,0.39-0.942,0.725-1.648l1.016-2.156h0.812l-2.311,4.734H9.153
		L8.988,2.317C8.973,2.146,8.963,1.81,8.952,1.309c-0.129,0.319-0.275,0.663-0.44,1.032l-1.25,2.751H6.417V5.094z M15.586,3.489
		c-0.147,0.341-0.356,0.602-0.625,0.78c-0.268,0.181-0.542,0.269-0.819,0.269c-0.294,0-0.546-0.117-0.75-0.346
		c-0.206-0.235-0.308-0.574-0.308-1.016c0-0.074,0.007-0.156,0.02-0.25h3.492c0.043-0.244,0.063-0.479,0.063-0.711
		c0-0.6-0.169-1.077-0.505-1.427c-0.338-0.35-0.79-0.525-1.356-0.525c-0.444,0-0.855,0.118-1.239,0.354
		C13.18,0.852,12.87,1.212,12.63,1.697c-0.236,0.485-0.358,0.984-0.358,1.5c0,0.394,0.074,0.743,0.228,1.053
		c0.154,0.31,0.377,0.543,0.669,0.707c0.293,0.163,0.615,0.242,0.968,0.242c0.562,0,1.047-0.175,1.452-0.525
		c0.407-0.353,0.667-0.721,0.782-1.108L15.586,3.489L15.586,3.489z M13.231,2.304c0.139-0.476,0.354-0.831,0.64-1.068
		C14.155,1,14.469,0.88,14.816,0.88c0.32,0,0.578,0.107,0.784,0.321c0.201,0.216,0.303,0.524,0.303,0.924
		c0,0.04-0.002,0.095-0.004,0.181h-2.668V2.304z M17.184,5.094l0.984-4.732h0.718l-0.201,0.97c0.247-0.363,0.483-0.633,0.719-0.807
		c0.229-0.174,0.469-0.261,0.712-0.261c0.161,0,0.358,0.059,0.592,0.174l-0.329,0.747C20.24,1.08,20.086,1.028,19.92,1.028
		c-0.283,0-0.572,0.159-0.872,0.475c-0.296,0.312-0.532,0.877-0.704,1.696l-0.396,1.895H17.184L17.184,5.094z M23.698,3.489
		c-0.147,0.341-0.36,0.602-0.626,0.78c-0.271,0.181-0.542,0.269-0.819,0.269c-0.296,0-0.545-0.117-0.751-0.346
		c-0.203-0.235-0.305-0.574-0.305-1.016c0-0.074,0.004-0.156,0.016-0.25h3.497c0.042-0.244,0.063-0.479,0.063-0.711
		c0-0.6-0.169-1.077-0.507-1.427c-0.336-0.35-0.787-0.525-1.353-0.525c-0.444,0-0.857,0.118-1.238,0.354
		c-0.382,0.236-0.692,0.596-0.93,1.081c-0.239,0.485-0.359,0.984-0.359,1.5c0,0.394,0.078,0.743,0.231,1.053
		c0.151,0.31,0.378,0.543,0.669,0.707c0.291,0.163,0.616,0.242,0.966,0.242c0.564,0,1.049-0.175,1.452-0.525
		c0.407-0.353,0.665-0.721,0.782-1.108L23.698,3.489L23.698,3.489z M21.343,2.304c0.139-0.476,0.351-0.831,0.639-1.068
		C22.266,1,22.58,0.88,22.926,0.88c0.319,0,0.579,0.107,0.782,0.321c0.202,0.216,0.306,0.524,0.306,0.924
		c0,0.04-0.003,0.095-0.005,0.181h-2.666V2.304z M28.47,4.409c-0.461,0.527-0.94,0.787-1.441,0.787c-0.448,0-0.82-0.167-1.118-0.498
		c-0.298-0.33-0.449-0.811-0.449-1.437c0-0.574,0.122-1.101,0.356-1.575c0.236-0.477,0.531-0.832,0.884-1.068
		c0.35-0.236,0.708-0.356,1.063-0.356c0.589,0,1.029,0.283,1.333,0.847l0.532-2.543h0.802l-1.358,6.527h-0.748L28.47,4.409
		L28.47,4.409z M26.268,3.109c0,0.33,0.032,0.588,0.097,0.776C26.432,4.074,26.54,4.231,26.7,4.36
		c0.153,0.126,0.342,0.188,0.565,0.188c0.367,0,0.696-0.188,0.993-0.571c0.401-0.499,0.6-1.123,0.6-1.861
		c0-0.373-0.098-0.665-0.292-0.875c-0.196-0.208-0.445-0.316-0.739-0.316c-0.193,0-0.371,0.045-0.531,0.132
		c-0.157,0.084-0.316,0.229-0.472,0.433c-0.155,0.208-0.288,0.468-0.393,0.784C26.321,2.592,26.268,2.869,26.268,3.109L26.268,3.109
		z M32.898,5.094l1.368-6.527h0.802L34.573,0.9c0.247-0.232,0.473-0.396,0.673-0.494c0.201-0.095,0.414-0.146,0.632-0.146
		c0.429,0,0.787,0.165,1.077,0.496c0.287,0.328,0.427,0.805,0.427,1.435c0,0.418-0.056,0.802-0.172,1.147
		c-0.117,0.346-0.261,0.636-0.43,0.872c-0.17,0.234-0.348,0.423-0.53,0.565c-0.182,0.141-0.371,0.245-0.561,0.315
		c-0.189,0.069-0.373,0.105-0.55,0.105c-0.304,0-0.57-0.08-0.806-0.245c-0.229-0.163-0.412-0.414-0.539-0.745l-0.191,0.886h-0.705
		V5.094z M34.088,3.16l-0.009,0.149c0,0.4,0.093,0.707,0.284,0.916c0.186,0.209,0.418,0.313,0.698,0.313
		c0.276,0,0.526-0.097,0.755-0.296c0.23-0.195,0.418-0.503,0.563-0.922c0.147-0.417,0.222-0.803,0.222-1.156
		c0-0.399-0.092-0.707-0.276-0.925c-0.187-0.224-0.418-0.332-0.694-0.332c-0.281,0-0.541,0.113-0.775,0.338
		c-0.236,0.223-0.435,0.567-0.593,1.033C34.146,2.629,34.088,2.921,34.088,3.16L34.088,3.16z M37.661,6.916l0.045-0.76
		c0.168,0.045,0.327,0.071,0.487,0.071c0.164,0,0.294-0.039,0.396-0.111c0.132-0.097,0.275-0.281,0.43-0.549l0.258-0.461
		l-0.789-4.744h0.793l0.358,2.38c0.069,0.47,0.132,0.94,0.181,1.41l2.115-3.788h0.836l-3.013,5.353
		c-0.291,0.524-0.55,0.872-0.773,1.039c-0.227,0.171-0.486,0.256-0.78,0.256C38.02,7.009,37.837,6.979,37.661,6.916z"/>
</g>
</svg>
